<svg enable-background="new 0 0 100 100" height="100" viewBox="0 0 100 100" width="100" xmlns="http://www.w3.org/2000/svg"><g fill="#bcbcbc"><path d="m40.4 46.6s9.5-.7 9.5-11.8-7.7-16.5-17.5-16.5h-18.2-.5-13.7v62h13.7.5 18.1c0 .1 19.7.7 19.7-18.3 0 0 .8-15.4-11.6-15.4zm-10.5-17.2h2.3s4.4 0 4.4 6.5c0 6.4-2.6 7.4-5.5 7.4h-16.9v-13.9zm1.5 39.9h-17.2v-16.5h18.1s6.5-.1 6.5 8.5c0 7.2-4.9 8-7.4 8z"/><path d="m78.2 34.1c-23.8 0-23.8 23.8-23.8 23.8s-1.6 23.7 23.8 23.7c0 0 21.2 1.2 21.2-16.5h-10.8s.4 6.7-9.9 6.7c0 0-10.9.7-10.9-10.8h32.1c-.1 0 3.4-26.9-21.7-26.9zm-10.6 18.7s1.3-9.6 10.9-9.6 9.5 9.6 9.5 9.6z"/><path d="m64.9 22h25.6v7.6h-25.6z"/></g></svg>